#!OML:ASF F:\VICON\USERDATA\INSTALL\rory3\rory3.ASF
:FULLY-SPECIFIED
:DEGREES
100
root 0.6214604805991875 17.66347927743728 20.237927159615953 3.636405842882813 -3.5408363943798515 -1.7804098163307438
lfemur -15.037765413799072 3.655258213902903 -23.126875230669818
ltibia 36.705571199285856
lfoot 4.463064264535155 -9.59192042437486
ltoes -9.047222688974259
rfemur -13.285330990741322 4.435571074408719 27.25267019871956
rtibia 92.36540782870031
rfoot -0.9612451588483877 -9.060791539579258
rtoes 3.950377141780238
lowerback 14.053680577495667 1.7150954878120501 0.46414595628740196
upperback -0.6082908109013851 2.309252136903557 0.003785479018583837
thorax -9.4317424611185 1.1669355946616053 -0.5027959743167223
lowerneck -20.146804685388076 -4.607131282333828 -2.420407858433519
upperneck 6.596698058419606 -6.576370946074176 6.761437709326746
head 5.506954196852913 -2.600673076040308 1.875281131508765
lclavicle -1.3367475555301496e-15 -2.758979314869624e-15
lhumerus -44.60057881324552 -9.178437522719037 91.41219475549262
lradius 106.52368816321358
lwrist 30.836620397625556
lhand -24.1544837384494 4.33976193989064
lfingers 7.12502
lthumb 2.3180109254661323 33.78272381419759
rclavicle -1.3367475554511018e-15 -2.7589793148118656e-15
rhumerus -47.551844586970375 10.942489127571962 -95.6614498588067
rradius 110.99193067198888
rwrist -22.247336133016766
rhand -18.69852944963509 38.28379765530781
rfingers 7.12502
rthumb 6.8662485245832166 8.05043060997349
101
root 0.6353364450201843 17.68946409749802 20.309074562048778 3.7301219101895096 -3.7723744777476202 -1.8610740904561458
lfemur -13.745957095535148 3.6691122962795295 -23.001426000689058
ltibia 36.616635764426924
lfoot 5.376923557698928 -8.659744370240075
ltoes -7.724533267046487
rfemur -14.848818380128783 4.30070616701918 27.21633513890327
rtibia 93.25266346492782
rfoot -0.35077619562731766 -8.463639326698706
rtoes 5.455516693247638
lowerback 13.902713067177313 1.6510240017735365 0.5311412519651348
upperback -0.6726917022615893 2.242930710309719 0.015562995707757432
thorax -9.416410158023151 1.1403985791091134 -0.4756029898941316
lowerneck -20.189514695365848 -4.531771087775233 -2.413883607367771
upperneck 6.607495041959242 -6.460546813998284 6.713304253187999
head 5.520706854302677 -2.546785423119995 1.8660297946586308
lclavicle -1.3367475555300135e-15 -2.758979314869263e-15
lhumerus -45.01311126296382 -9.129972971964529 91.51668918234328
lradius 106.82556812222245
lwrist 30.92092221847339
lhand -23.834908107138737 4.535122067462947
lfingers 7.12502
lthumb 2.3593001196888426 33.766885604315135
rclavicle -1.3367475554562084e-15 -2.758979314815615e-15
rhumerus -47.3888559523818 11.203094370421693 -95.56474845191114
rradius 110.8425889540905
rwrist -22.226100446934975
rhand -18.696514238353007 38.488662291742905
rfingers 7.12502
rthumb 6.881852919272774 8.232054365586515
102
root 0.6548814038317217 17.721170034145487 20.492298527340104 3.806983877600871 -3.8950050071672546 -1.9328995640104685
lfemur -12.469425590423171 3.5269509031883888 -22.87851817503833
ltibia 36.67842713355553
lfoot 6.082978602292269 -7.658248907279813
ltoes -8.454614162982852
rfemur -16.33068360700638 4.068758958050092 27.190651552051225
rtibia 93.82074604945589
rfoot -0.09068673564893182 -7.927619449179145
rtoes 5.437259122085432
lowerback 13.729316913784038 1.5646294277538915 0.6280303153226605
upperback -0.735864140732081 2.1439398225091644 0.03239200377202778
thorax -9.312658470395178 1.092596529369604 -0.4590544216008216
lowerneck -20.14818098541145 -4.469393815538355 -2.4006141307322912
upperneck 6.606097969855489 -6.35786734787148 6.648455103621748
head 5.505640363653836 -2.5047572093534805 1.8518221910588726
lclavicle -1.3367475555281673e-15 -2.7589793148675726e-15
lhumerus -45.42373136406601 -9.060067971348683 91.6503759592262
lradius 107.12048480347042
lwrist 31.033184828751377
lhand -23.915927913542774 4.428143725347284
lfingers 7.12502
lthumb 2.5429552042241954 33.971562641431376
rclavicle -1.3367475554595278e-15 -2.7589793148179737e-15
rhumerus -47.25889232064198 11.452687554225584 -95.45576874640014
rradius 110.74197996823398
rwrist -22.33184534081859
rhand -18.671356273646435 38.78001361621326
rfingers 7.12502
rthumb 6.866768348032377 8.40766272492812
103
root 0.6569281025437217 17.744260602079667 20.602423713545868 3.911382578117909 -4.105805726337723 -2.0654621828156423
lfemur -11.288514087613631 3.388971345962989 -22.639018287985635
ltibia 36.86240347318358
lfoot 6.76973106971656 -7.469156349359577
ltoes -10.220209716358418
rfemur -17.87411867104342 4.010974995602216 27.251561706186653
rtibia 94.18186016022133
rfoot 0.6549993448749465 -7.316417051149285
rtoes 4.823402321971345
lowerback 13.650752386019123 1.516114309471898 0.7278429362503287
upperback -0.8419854381353521 2.115744731619116 0.13988808587126456
thorax -9.388385786941475 1.081843722222999 -0.42053186024013683
lowerneck -19.999354435002584 -4.404311015982003 -2.4061365335055926
upperneck 6.61021784540948 -6.2571118680146345 6.580653962264357
head 5.489408483171391 -2.463166657788808 1.8375094078458873
lclavicle -1.3367475555258753e-15 -2.7589793148656067e-15
lhumerus -45.85847227139904 -8.982209036403964 91.8050539192248
lradius 107.37475197585779
lwrist 31.306026884650482
lhand -24.019958714849118 4.244716040378525
lfingers 7.12502
lthumb 2.716972714890823 34.097555361524854
rclavicle -1.3367475554614907e-15 -2.758979314819347e-15
rhumerus -47.172617779810786 11.677413968741016 -95.35648025527901
rradius 110.67029060107068
rwrist -22.35850270381426
rhand -18.64172421748411 39.152223291424946
rfingers 7.12502
rthumb 6.873649739565144 8.77654638697883
104
root 0.6638343902459036 17.771984227178553 20.78701817654062 3.9881009064481994 -4.275173364596217 -2.152461585744502
lfemur -10.126730047789458 3.201435449878297 -22.475698955513728
ltibia 37.134264858348786
lfoot 7.475305671272036 -8.300752078529614
ltoes -11.334209975099746
rfemur -19.270850709985236 3.9279743980176933 27.28552541037076
rtibia 94.28176570869951
rfoot 1.3336721222859218 -6.717760589538967
rtoes 4.072753563173697
lowerback 13.571877684068175 1.4661732116546917 0.819087391986789
upperback -0.9116658741335947 2.0652976848487086 0.22162738400313642
thorax -9.344406436901725 1.062134547337235 -0.38790877314546063
lowerneck -19.897343508766742 -4.358795637115629 -2.4206854780292915
upperneck 6.679166476906175 -6.171960698376259 6.506063320091194
head 5.516392741408318 -2.4268178244890164 1.8173774302283587
lclavicle -1.3367475555274726e-15 -2.758979314866728e-15
lhumerus -46.14569363718972 -8.884363263629467 91.92686077265628
lradius 107.58572978956646
lwrist 31.65752223787065
lhand -23.89314473864698 4.310731907064043
lfingers 7.12502
lthumb 2.8367782438383147 34.0257975121355
rclavicle -1.3367475554630384e-15 -2.7589793148203983e-15
rhumerus -47.141304560264274 11.86805914030985 -95.25821699350915
rradius 110.65207470230185
rwrist -22.462609998485856
rhand -18.613243964536196 39.61766436331715
rfingers 7.12502
rthumb 6.829337989710367 9.208235211407061
105
root 0.6836217815682694 17.799469562272613 21.095390478433433 3.992365996761827 -4.324336524293786 -2.159418872348261
lfemur -8.949775511748353 2.9118229820165644 -22.43378293621191
ltibia 37.5215081130537
lfoot 8.000356988360156 -9.422234441494993
ltoes -11.545473566560332
rfemur -20.442557320370902 3.709731606944553 27.230828314989267
rtibia 94.15355989522271
rfoot 1.9805420209755509 -5.936003314703441
rtoes 4.215822251165538
lowerback 13.469626169254774 1.3922655087756333 0.8773459617793995
upperback -0.9771539884894029 1.9841492831383754 0.25965708730225767
thorax -9.183236530933259 1.0171204151799516 -0.397335871796939
lowerneck -19.790844271040253 -4.334293937195775 -2.4619534061046577
upperneck 6.809085300740984 -6.111753492134577 6.443292339279791
head 5.560984461625654 -2.402098902366382 1.8006182653753187
lclavicle -1.3367475555277735e-15 -2.758979314866711e-15
lhumerus -46.47282884648261 -8.774854322068132 92.01725312208015
lradius 107.7888407578095
lwrist 32.024028799482586
lhand -23.720444461157133 4.426228285386791
lfingers 7.12502
lthumb 2.993501442743516 33.932345469774546
rclavicle -1.33674755546657e-15 -2.7589793148228876e-15
rhumerus -47.272507191816175 11.95518214253893 -95.1861828222902
rradius 110.69319808878686
rwrist -22.489756196792772
rhand -18.638244346122466 40.045428665087734
rfingers 7.12502
rthumb 6.870120247658886 9.795405904226069
106
root 0.7040974284572333 17.82405966754642 21.399473608665577 3.973517739529222 -4.308650152408475 -2.155386882072602
lfemur -7.838287167397333 2.552030955410003 -22.41251987290753
ltibia 38.04435521797546
lfoot 8.477959318877968 -10.17369942715333
ltoes -10.76660369489215
rfemur -21.486015364459018 3.4325844348822865 27.151527052056977
rtibia 93.82711370224891
rfoot 2.4868106045522858 -5.305112250497941
rtoes 4.07669025796168
lowerback 13.377157121048425 1.3099436266354068 0.9359836488172356
upperback -1.0427554430966595 1.8911917452164007 0.28933861535543737
thorax -8.965445867954958 0.9719922589714769 -0.39193191513774966
lowerneck -19.649207977330896 -4.282209004701551 -2.4569636379431516
upperneck 6.973384593786843 -6.034556201863213 6.3572215385258115
head 5.61887388532236 -2.372463877014886 1.7756457075163026
lclavicle -1.3367475555240828e-15 -2.7589793148636776e-15
lhumerus -46.74170405910984 -8.718794155921794 92.08507560646011
lradius 107.95550121092741
lwrist 32.1774648047025
lhand -23.331840037684778 4.530894743898568
lfingers 7.12502
lthumb 2.861977595119164 33.48747117721477
rclavicle -1.3367475554689762e-15 -2.7589793148246286e-15
rhumerus -47.38651316213165 12.025463675788124 -95.10312915340813
rradius 110.72829319028398
rwrist -22.68070030736009
rhand -18.645420023396643 40.495806955365644
rfingers 7.12502
rthumb 6.8660636802409325 10.264460440481711
